<svg aria-hidden="true" style="position: absolute; width: 0; height: 0; overflow: hidden;" version="1.1" xmlns="http://www.w3.org/2000/svg" xmlns:xlink="http://www.w3.org/1999/xlink">
<defs>
<symbol id="icon-star" viewBox="0 0 34 32">
<path stroke-linejoin="miter" stroke-linecap="butt" stroke-miterlimit="4" stroke-width="1.6842" d="M15.901 3.051c0.252-0.776 1.35-0.776 1.602 0l2.51 7.725c0.338 1.041 1.308 1.745 2.403 1.745h8.123c0.816 0 1.155 1.045 0.495 1.525l-6.572 4.775c-0.885 0.643-1.256 1.783-0.918 2.824l2.512 7.727c0.251 0.775-0.636 1.42-1.296 0.941l-6.572-4.775c-0.885-0.643-2.085-0.643-2.97 0l-6.572 4.775c-0.66 0.479-1.547-0.165-1.296-0.941l2.511-7.727c0.338-1.041-0.033-2.181-0.918-2.824l-6.572-4.775c-0.66-0.479-0.321-1.525 0.495-1.525h8.123c1.094-0 2.065-0.704 2.403-1.745l2.51-7.725z"></path>
</symbol>
<symbol id="icon-coock" viewBox="0 0 23 32">
<path d="M0 7.347c0 2.422 1.768 4.434 4.081 4.824v7.421c0 0.217 0.086 0.424 0.239 0.577s0.361 0.239 0.577 0.239h13.063c0.217 0 0.424-0.086 0.577-0.239s0.239-0.361 0.239-0.577v-7.421c2.312-0.391 4.080-2.402 4.080-4.824 0-2.701-2.197-4.898-4.898-4.898h-1.847c-1.034-1.478-2.746-2.449-4.683-2.449s-3.649 0.971-4.683 2.449h-1.848c-1.299 0.002-2.543 0.518-3.462 1.436s-1.435 2.163-1.436 3.462zM5.714 17.961h11.43v0.815h-11.43v-0.815zM4.898 4.082h1.056c-0.159 0.53-0.24 1.080-0.241 1.633 0 0.217 0.086 0.424 0.239 0.577s0.361 0.239 0.577 0.239c0.217 0 0.424-0.086 0.577-0.239s0.239-0.361 0.239-0.577c0-2.251 1.831-4.082 4.082-4.082s4.082 1.831 4.082 4.082c0 0.217 0.086 0.424 0.239 0.577s0.361 0.239 0.577 0.239c0.217 0 0.424-0.086 0.577-0.239s0.239-0.361 0.239-0.577c0-0.567-0.086-1.114-0.241-1.633h1.056c1.801 0 3.266 1.465 3.266 3.266-0.001 0.865-0.344 1.694-0.955 2.306s-1.439 0.957-2.304 0.959l-0.005-0.001c-0.107-0-0.214 0.021-0.313 0.062s-0.189 0.102-0.265 0.178c-0.076 0.076-0.137 0.166-0.178 0.265s-0.062 0.206-0.062 0.313l0.002 0.008v4.891h-11.43v-4.895l0.001-0.004c0-0.107-0.021-0.214-0.062-0.313s-0.101-0.19-0.177-0.265c-0.076-0.076-0.166-0.136-0.265-0.177s-0.206-0.062-0.313-0.062l-0.005 0.001c-0.865-0.002-1.693-0.347-2.304-0.959s-0.955-1.441-0.955-2.306c0-1.801 1.465-3.266 3.266-3.266zM20.406 23.675h-17.956c-0.217 0-0.424 0.086-0.577 0.239s-0.239 0.361-0.239 0.577c0 0.216 0.086 0.424 0.239 0.577s0.361 0.239 0.577 0.239h17.956c0.217 0 0.424-0.086 0.577-0.239s0.239-0.361 0.239-0.577c0-0.217-0.086-0.424-0.239-0.577s-0.361-0.239-0.577-0.239zM20.406 26.124h-17.956c-0.217 0-0.424 0.086-0.577 0.239s-0.239 0.361-0.239 0.577c0 0.216 0.086 0.424 0.239 0.577s0.361 0.239 0.577 0.239h17.956c0.217 0 0.424-0.086 0.577-0.239s0.239-0.361 0.239-0.577c0-0.217-0.086-0.424-0.239-0.577s-0.361-0.239-0.577-0.239zM16.325 28.595h-9.793c-0.216 0-0.424 0.086-0.577 0.239s-0.239 0.361-0.239 0.577c0 0.217 0.086 0.424 0.239 0.577s0.361 0.239 0.577 0.239h9.793c0.216 0 0.424-0.086 0.577-0.239s0.239-0.361 0.239-0.577c0-0.216-0.086-0.424-0.239-0.577s-0.361-0.239-0.577-0.239z"></path>
</symbol>
<symbol id="icon-facebook" viewBox="0 0 32 32">
<path d="M22.512 0.007l-3.617-0.007c-4.064 0-6.69 3.091-6.69 7.875v3.631h-3.637c-0.314 0-0.569 0.292-0.569 0.653v5.261c0 0.361 0.255 0.652 0.569 0.652h3.637v13.275c0 0.36 0.254 0.652 0.569 0.652h4.745c0.314 0 0.569-0.292 0.569-0.652v-13.275h4.252c0.314 0 0.569-0.292 0.569-0.652l0.002-5.261c0-0.173-0.060-0.339-0.167-0.461s-0.252-0.191-0.402-0.191h-4.254v-3.078c0-1.479 0.307-2.23 1.987-2.23l2.437-0.001c0.314 0 0.568-0.292 0.568-0.652v-4.885c0-0.36-0.254-0.652-0.568-0.652z"></path>
</symbol>
<symbol id="icon-instagram" viewBox="0 0 32 32">
<path d="M16.316 32c-0.106 0-0.212 0-0.319-0-2.508 0.006-4.826-0.058-7.080-0.195-2.066-0.126-3.953-0.84-5.455-2.065-1.45-1.182-2.44-2.781-2.942-4.75-0.438-1.715-0.461-3.398-0.483-5.026-0.016-1.168-0.033-2.553-0.036-3.96 0.003-1.414 0.020-2.798 0.036-3.966 0.022-1.628 0.045-3.311 0.483-5.026 0.503-1.97 1.493-3.568 2.942-4.75 1.503-1.225 3.389-1.939 5.456-2.065 2.254-0.137 4.572-0.201 7.086-0.195 2.509-0.005 4.826 0.058 7.080 0.195 2.066 0.126 3.953 0.84 5.455 2.065 1.45 1.182 2.44 2.781 2.943 4.75 0.437 1.715 0.461 3.398 0.483 5.026 0.016 1.168 0.033 2.553 0.036 3.96v0.006c-0.003 1.408-0.020 2.792-0.036 3.96-0.022 1.628-0.045 3.311-0.483 5.026-0.503 1.97-1.493 3.568-2.943 4.75-1.502 1.225-3.389 1.939-5.455 2.065-2.159 0.131-4.376 0.195-6.768 0.195zM15.997 29.5c2.468 0.006 4.733-0.056 6.934-0.19 1.563-0.095 2.917-0.602 4.027-1.507 1.026-0.837 1.732-1.991 2.1-3.431 0.364-1.428 0.385-2.96 0.406-4.442 0.016-1.16 0.032-2.535 0.036-3.929-0.004-1.394-0.020-2.769-0.036-3.929-0.020-1.482-0.041-3.015-0.406-4.443-0.367-1.44-1.074-2.594-2.1-3.431-1.11-0.905-2.465-1.412-4.027-1.507-2.201-0.134-4.467-0.196-6.928-0.19-2.467-0.006-4.733 0.056-6.934 0.19-1.563 0.095-2.917 0.602-4.027 1.507-1.026 0.837-1.732 1.991-2.1 3.431-0.364 1.428-0.385 2.96-0.406 4.443-0.016 1.161-0.032 2.537-0.036 3.932 0.003 1.389 0.020 2.765 0.036 3.926 0.020 1.482 0.041 3.015 0.406 4.442 0.367 1.44 1.074 2.594 2.1 3.431 1.11 0.905 2.465 1.412 4.027 1.507 2.201 0.134 4.467 0.197 6.928 0.191zM15.937 23.812c-4.308 0-7.813-3.505-7.813-7.812s3.505-7.813 7.813-7.813c4.308 0 7.813 3.505 7.813 7.813s-3.505 7.812-7.813 7.812zM15.937 10.687c-2.929 0-5.313 2.383-5.313 5.313s2.383 5.312 5.313 5.312c2.93 0 5.313-2.383 5.313-5.312s-2.383-5.313-5.313-5.313zM24.625 5.687c-1.035 0-1.875 0.839-1.875 1.875s0.84 1.875 1.875 1.875c1.036 0 1.875-0.839 1.875-1.875s-0.839-1.875-1.875-1.875z"></path>
</symbol>
<symbol id="icon-twitter" viewBox="0 0 32 32">
<path d="M32 5.441c-1.19 0.583-2.458 0.97-3.78 1.158 1.36-0.908 2.398-2.334 2.886-4.053-1.268 0.845-2.668 1.442-4.16 1.775-1.204-1.433-2.92-2.321-4.792-2.321-3.632 0-6.556 3.295-6.556 7.335 0 0.581 0.044 1.14 0.152 1.672-5.454-0.297-10.28-3.219-13.522-7.671-0.566 1.098-0.898 2.354-0.898 3.707 0 2.54 1.17 4.791 2.914 6.095-1.054-0.022-2.088-0.364-2.964-0.903 0 0.022 0 0.051 0 0.080 0 3.564 2.274 6.524 5.256 7.206-0.534 0.163-1.116 0.241-1.72 0.241-0.42 0-0.844-0.027-1.242-0.125 0.85 2.904 3.262 5.039 6.13 5.109-2.232 1.952-5.066 3.128-8.134 3.128-0.538 0-1.054-0.027-1.57-0.101 2.906 2.095 6.35 3.291 10.064 3.291 12.072 0 18.672-11.178 18.672-20.868 0-0.324-0.010-0.637-0.024-0.948 1.302-1.033 2.396-2.323 3.288-3.807z"></path>
</symbol>
<symbol id="icon-logo" viewBox="0 0 72 32">
<path d="M42.865 15.997c0 0.261-0.008 0.521 0 0.783 0.090 2.653-0.746 5.043-2.089 7.296-0.45 0.756-0.881 1.524-1.268 2.314-0.32 0.649-0.765 1.104-1.456 1.37-0.386 0.148-0.744 0.405-1.068 0.669-1.49 1.218-3.181 2.091-4.989 2.705-1.201 0.408-2.438 0.767-3.743 0.751-0.389-0.004-0.779 0.114-1.169 0.115s-0.779-0.124-1.165-0.108c-1.682 0.071-3.241-0.441-4.789-0.979-1.689-0.586-3.18-1.513-4.583-2.617-1.98-1.558-3.39-3.52-4.428-5.765-0.559-1.211-1.014-2.46-1.143-3.804-0.021-0.223-0.096-0.444-0.162-0.66-0.47-1.507-0.2-2.985 0.091-4.486 0.223-1.148 0.452-2.283 0.885-3.373 1.146-2.884 2.967-5.245 5.488-7.1 2.102-1.545 4.454-2.494 7.012-2.902 2.935-0.468 5.8-0.131 8.58 0.963 1.387 0.548 2.696 1.241 3.839 2.159 1.066 0.856 2.028 1.858 2.937 2.883 0.823 0.928 1.408 2.034 1.93 3.162 0.815 1.762 1.347 3.586 1.293 5.546-0.012 0.362-0.003 0.721-0.004 1.080zM41.738 12.427c-0.081-0.616-0.132-1.329-0.284-2.022-0.433-1.992-1.599-3.548-3.152-4.818-0.882-0.722-1.843-1.349-2.791-1.988-0.321-0.216-0.694-0.415-1.068-0.481-0.963-0.176-1.938-0.34-2.914-0.389-1.695-0.085-3.217-0.518-4.496-1.685-0.942-0.858-1.967-0.941-2.946-0.186-1.109 0.855-2.372 1.357-3.659 1.854-0.943 0.364-1.851 0.823-2.758 1.276-0.758 0.379-1.199 0.971-1.188 1.867 0.006 0.503-0.227 0.923-0.697 1.201-0.392 0.234-0.769 0.492-1.128 0.773-1.003 0.781-1.785 1.662-1.953 3.027-0.133 1.080-0.464 2.148-1.212 3.038-0.25 0.306-0.405 0.677-0.446 1.069-0.069 0.807-0.041 1.625-0.020 2.437 0.006 0.217 0.101 0.451 0.213 0.642 0.258 0.452 0.54 0.891 0.843 1.315 0.734 1.010 1.373 2.046 1.52 3.329 0.143 1.244 0.75 2.257 1.776 3.030 1.487 1.121 2.92 2.311 4.43 3.402 0.811 0.588 1.68 1.102 2.75 1.221s2.119 0.408 3.078 0.941c0.201 0.107 0.422 0.174 0.649 0.197 1.354 0.144 2.606-0.187 3.795-0.814 0.373-0.197 0.756-0.375 1.142-0.546 0.929-0.412 1.959-0.682 2.768-1.255 0.9-0.639 1.863-0.923 2.896-1.101 0.446-0.077 0.811-0.26 1.102-0.588 0.347-0.39 0.668-0.802 1.029-1.179 0.374-0.389 0.643-0.802 0.709-1.356 0.1-0.849 0.467-1.599 0.933-2.319 0.788-1.217 1.237-2.562 1.47-3.992 0.061-0.375 0.096-0.692-0.092-1.023-0.543-0.953-0.321-2.035-0.493-3.049-0.087-0.548 0.113-1.148 0.197-1.832l-0.002 0.001zM35.206 2.909c-0.229-0.251-0.302-0.364-0.406-0.434-0.187-0.128-0.392-0.233-0.591-0.344-1.704-0.95-3.569-1.412-5.476-1.743-0.383-0.067-0.786-0.037-1.176-0.022-0.102 0.004-0.223 0.102-0.288 0.19-0.030 0.040 0.037 0.18 0.093 0.248 0.424 0.5 0.977 0.878 1.601 1.092 1.076 0.383 2.208 0.594 3.351 0.623 0.484 0.013 0.967 0.104 1.45 0.169 0.411 0.058 0.822 0.127 1.442 0.223zM20.733 30.284c-1.143-0.925-2.146-1.752-3.166-2.556-0.844-0.666-1.707-1.309-2.57-1.951-0.097-0.072-0.25-0.070-0.462-0.124 1.040 1.728 4.513 4.353 6.198 4.632zM13.029 8.699c0.69-0.521 1.328-1.070 2.028-1.524 0.982-0.633 1.358-1.421 1.126-2.773-0.697 0.564-1.194 1.244-1.731 1.861-0.568 0.651-0.989 1.426-1.462 2.155-0.037 0.059 0.023 0.175 0.040 0.281zM36.285 28.421c-0.643-0.044-1.291 0.069-1.695 0.412-0.766 0.652-1.677 0.98-2.604 1.306-0.487 0.171-0.945 0.422-1.404 0.661-0.063 0.033-0.075 0.209-0.062 0.313 0.004 0.035 0.176 0.092 0.247 0.069 0.832-0.281 1.692-0.507 2.48-0.882 0.967-0.459 1.874-1.040 2.799-1.579 0.097-0.054 0.148-0.181 0.239-0.299zM11.709 19.382c-0.185 0.54-0.148 0.838-0.032 1.156 0.322 0.882 0.518 1.814 1.1 2.585 0.215 0.286 0.26 0.925 0.657 0.787 0.35-0.12-0.060-0.627-0.084-0.968-0.092-1.304-0.784-2.355-1.641-3.561zM17.949 3.142l0.086 0.129c0.481-0.176 0.966-0.343 1.442-0.532 1.034-0.41 2.065-0.829 3.092-1.254 0.207-0.087 0.397-0.225 0.574-0.366 0.049-0.040 0.041-0.175 0.025-0.258-0.008-0.037-0.106-0.078-0.162-0.080-0.096 0.002-0.192 0.018-0.284 0.047-1.397 0.393-2.714 0.974-3.975 1.68-0.295 0.165-0.534 0.422-0.798 0.636zM42.482 17.147c0.084-0.097 0.151-0.138 0.155-0.183 0.136-1.421-0.016-2.829-0.213-4.233-0.010-0.071-0.109-0.172-0.176-0.18-0.074-0.010-0.19 0.051-0.235 0.117-0.074 0.104-0.12 0.225-0.134 0.352-0.074 1.158 0.003 2.321 0.23 3.46 0.045 0.23 0.237 0.432 0.373 0.668zM11.372 13.227c0.545-0.206 0.627-0.578 0.685-0.915 0.142-0.82 0.498-1.61 0.381-2.477-0.57 1.035-1.075 2.083-1.066 3.392h-0zM24.565 31.234c-1.222-0.535-1.553-0.591-2.641-0.441 0.461 0.173 0.876 0.448 1.294 0.452 0.435 0.006 0.907 0.534 1.348-0.011h-0z"></path>
<path d="M27.085 20.593c-0.836-0.015-1.409-0.361-1.835-1.030-0.396-0.624-1.055-0.947-1.658-1.332-0.761-0.484-1.379-1.030-1.555-2.012-0.122-0.665 0.020-1.244 0.293-1.769 0.229-0.439 0.638-0.847 1.068-1.108 0.466-0.283 0.852-0.55 1.067-1.073 0.243-0.602 0.857-0.638 1.4-0.746 0.512-0.102 1.031-0.167 1.536-0.295 0.69-0.174 1.315-0.12 1.819 0.411 0.389 0.412 0.844 0.708 1.351 0.958 0.527 0.26 0.701 0.564 0.536 1.107-0.112 0.369-0.004 0.62 0.135 0.914 0.152 0.321 0.308 0.647 0.412 0.986 0.347 1.128-0.052 2.077-1.122 2.58-0.663 0.311-1.17 0.726-1.335 1.456-0.066 0.294-0.251 0.461-0.514 0.537-0.529 0.153-1.066 0.28-1.599 0.417zM30.593 15.864c0.017-1.987-1.505-3.576-3.484-3.579-1.776 0-3.562 1.189-3.631 3.469-0.056 1.824 1.48 3.524 3.481 3.53 2.437 0.012 3.587-1.663 3.634-3.42zM23.459 17.764c0-0.255 0.025-0.385-0.004-0.503-0.262-1.079-0.433-2.148 0.162-3.188 0.043-0.075-0.056-0.229-0.089-0.346-0.117 0.037-0.258 0.045-0.346 0.117-0.984 0.799-1.422 2.718 0.277 3.92zM27.111 11.787c0.412 0.149 0.647 0.255 0.892 0.321 0.907 0.238 1.68 0.664 2.218 1.451 0.106 0.155 0.243 0.385 0.446 0.209 0.108-0.094 0.143-0.382 0.081-0.526-0.084-0.191-0.275-0.43-0.458-0.468-0.498-0.103-0.771-0.46-1.095-0.771-0.546-0.519-1.156-0.682-2.085-0.215zM27.055 19.609l-0.012-0.075c-0.261 0-0.525-0.022-0.782 0.009-0.132 0.016-0.252 0.127-0.378 0.195 0.114 0.1 0.213 0.257 0.345 0.29 0.703 0.175 1.411 0.213 2.104-0.055 0.118-0.046 0.25-0.106 0.324-0.201 0.066-0.080 0.087-0.223 0.074-0.331-0.005-0.040-0.169-0.101-0.25-0.088-0.476 0.074-0.95 0.167-1.422 0.254l-0.002 0.001zM30.648 17.571c0.487-0.089 0.704-0.361 0.733-0.779 0.021-0.352 0.016-0.705-0.015-1.056-0.008-0.093-0.138-0.175-0.213-0.263-0.108 0.101-0.328 0.238-0.308 0.299 0.198 0.609-0.215 1.155-0.196 1.798v0.001z"></path>
<path d="M35.101 20.323c-0.028 0.014-0.141 0.107-0.263 0.12-0.111 0.013-0.273-0.024-0.342-0.101-0.346-0.386-0.682-0.783-0.991-1.199-0.081-0.109-0.114-0.401-0.068-0.426 0.152-0.083 0.449-0.17 0.516-0.098 0.391 0.427 0.736 0.897 1.089 1.357 0.035 0.046 0.024 0.125 0.060 0.346z"></path>
<path d="M18.53 23.668c0.181 0.014 0.538 0.025 0.887 0.084 0.087 0.015 0.203 0.183 0.203 0.283s-0.1 0.274-0.187 0.295c-0.677 0.166-1.352 0.207-1.951-0.241-0.034-0.031-0.060-0.070-0.077-0.112s-0.023-0.089-0.019-0.134c0.013-0.067 0.118-0.16 0.189-0.165 0.26-0.022 0.521-0.010 0.955-0.010z"></path>
<path d="M39.757 9.562l0.256 0.139c-0.073 0.129-0.117 0.336-0.223 0.373-0.488 0.177-0.988 0.319-1.497 0.423-0.146 0.028-0.359-0.114-0.494-0.231-0.156-0.136-0.063-0.431 0.133-0.461 0.577-0.088 1.158-0.155 1.824-0.242z"></path>
<path d="M22.515 26.541c0.271 0.125 0.498 0.16 0.608 0.294 0.303 0.372 0.581 0.764 0.83 1.174 0.122 0.195 0.011 0.406-0.194 0.462-0.112 0.031-0.316-0.060-0.399-0.16-0.331-0.394-0.637-0.807-0.918-1.238-0.065-0.102 0.036-0.308 0.072-0.532z"></path>
<path d="M33.146 11.018c0.017-0.114 0-0.244 0.054-0.294 0.073-0.066 0.23-0.12 0.305-0.085 0.103 0.049 0.169 0.182 0.24 0.286 0.196 0.291 0.391 0.584 0.578 0.882 0.084 0.134 0.196 0.276 0.203 0.42 0.008 0.133-0.074 0.306-0.175 0.398-0.056 0.051-0.289 0.018-0.346-0.053-0.375-0.471-0.824-0.913-0.857-1.554z"></path>
<path d="M34.312 6.010c-0.081 0.481-0.114 0.836-0.208 1.175-0.059 0.183-0.172 0.345-0.324 0.465-0.108 0.086-0.295 0.073-0.446 0.105-0.012-0.14-0.056-0.286-0.031-0.419 0.079-0.41 0.185-0.815 0.28-1.222 0.007-0.032 0.005-0.065 0.015-0.096 0.075-0.245 0.236-0.432 0.494-0.331 0.13 0.051 0.191 0.276 0.221 0.323z"></path>
<path d="M27.318 9.141c0.228 0.028 0.523 0.043 0.804 0.111 0.096 0.023 0.238 0.194 0.221 0.268-0.029 0.132-0.14 0.306-0.258 0.345-0.186 0.057-0.385 0.058-0.571 0.003-0.324-0.102-0.627-0.136-0.95-0.002-0.213 0.088-0.412-0.004-0.469-0.214-0.076-0.281 0.137-0.417 0.377-0.457 0.256-0.042 0.52-0.035 0.845-0.054z"></path>
<path d="M32.377 22.97c-0.092 0.398-0.162 0.748-0.262 1.089-0.019 0.067-0.162 0.157-0.222 0.142-0.108-0.026-0.26-0.11-0.282-0.198-0.049-0.189-0.054-0.386-0.016-0.577 0.076-0.35 0.151-0.682 0.008-1.039-0.068-0.171-0.049-0.444 0.214-0.444 0.142 0 0.345 0.173 0.409 0.316 0.103 0.229 0.11 0.499 0.151 0.71z"></path>
<path d="M28.386 22.868c-0.053 0.093-0.078 0.204-0.148 0.251-0.427 0.291-0.855 0.584-1.304 0.838-0.115 0.065-0.316 0.025-0.463-0.018-0.215-0.063-0.259-0.342-0.081-0.455 0.492-0.312 0.986-0.621 1.493-0.908 0.081-0.046 0.243 0.004 0.348 0.055 0.071 0.035 0.101 0.149 0.155 0.237z"></path>
<path d="M22.945 4.155c0.069 0.040 0.2 0.075 0.217 0.139 0.17 0.618 0.333 1.238 0.468 1.864 0.037 0.174-0.195 0.27-0.351 0.166-0.49-0.327-0.796-1.536-0.51-2.042 0.030-0.050 0.102-0.075 0.176-0.128z"></path>
<path d="M29.004 5.911c-0.148-0.098-0.307-0.147-0.329-0.231-0.023-0.091 0.053-0.247 0.136-0.321 0.36-0.318 0.736-0.618 1.128-0.897 0.132-0.092 0.406-0.157 0.507-0.085 0.239 0.166 0.114 0.401-0.053 0.573-0.224 0.231-0.446 0.475-0.704 0.662-0.198 0.141-0.452 0.201-0.685 0.299z"></path>
<path d="M19.68 9.177l-0.359 0.335c-0.102-0.11-0.254-0.201-0.297-0.331-0.172-0.512-0.316-1.033-0.453-1.555-0.019-0.072 0.041-0.219 0.101-0.243 0.099-0.040 0.263-0.056 0.338 0 0.149 0.109 0.319 0.254 0.367 0.418 0.128 0.425 0.195 0.87 0.301 1.377z"></path>
<path d="M15.754 17.757c-0.329 0.596-0.579 1.207-1.191 1.533-0.103 0.055-0.331-0.015-0.441-0.102-0.187-0.147 0-0.27 0.091-0.395 0.288-0.392 0.553-0.8 0.859-1.177 0.079-0.097 0.279-0.144 0.415-0.131 0.092 0.008 0.168 0.164 0.268 0.272z"></path>
<path d="M19.47 17.808c0.172 0.098 0.296 0.128 0.319 0.192 0.038 0.106 0.058 0.272 0 0.346-0.094 0.117-0.255 0.184-0.394 0.263-0.36 0.204-0.715 0.42-1.089 0.594-0.114 0.053-0.32 0.037-0.422-0.035-0.209-0.147-0.136-0.383 0.032-0.487 0.514-0.318 1.053-0.596 1.553-0.873z"></path>
<path d="M38.066 15.106c-0.132 0.295-0.318 0.74-0.538 1.167-0.034 0.066-0.247 0.102-0.338 0.063-0.084-0.037-0.176-0.205-0.159-0.295 0.088-0.475 0.186-0.952 0.335-1.411 0.045-0.14 0.251-0.267 0.408-0.314 0.058-0.017 0.211 0.201 0.284 0.334 0.041 0.075 0.007 0.191 0.007 0.457z"></path>
<path d="M15.651 11.562c0.582 0.517 0.513 1.218 0.577 1.866 0.012 0.12-0.139 0.292-0.26 0.379-0.063 0.046-0.32-0.028-0.326-0.070-0.092-0.654-0.162-1.312-0.219-1.971-0.004-0.056 0.132-0.125 0.228-0.205z"></path>
<path d="M29.253 27.56c0.098 0.026 0.194 0.057 0.288 0.093 0.35 0.16 0.701 0.316 1.042 0.493 0.162 0.083 0.324 0.188 0.441 0.321 0.134 0.154-0.019 0.451-0.207 0.41-0.634-0.136-1.254-0.325-1.729-0.794-0.070-0.069-0.069-0.243-0.046-0.358 0.013-0.065 0.136-0.11 0.21-0.165z"></path>
<path d="M21.533 11.751c0.034 0.104 0.149 0.265 0.108 0.366-0.213 0.536-0.46 1.059-0.711 1.578-0.031 0.064-0.162 0.12-0.24 0.11-0.068-0.008-0.162-0.103-0.18-0.175-0.133-0.579 0.286-1.615 0.754-1.876 0.048-0.027 0.125-0.004 0.268-0.004z"></path>
<path d="M39.672 20.539c-0.073-0.046-0.225-0.102-0.304-0.209-0.032-0.043 0.071-0.239 0.159-0.301 0.39-0.281 0.789-0.549 1.204-0.789 0.112-0.065 0.345-0.069 0.427 0.003 0.076 0.067 0.087 0.321 0.019 0.414-0.348 0.48-0.787 0.846-1.504 0.882z"></path>
<path d="M37.262 24.67c-0.301-0.031-0.432-0.034-0.557-0.062-0.053-0.012-0.132-0.074-0.133-0.114-0.006-0.091 0.018-0.182 0.069-0.259 0.065-0.073 0.149-0.125 0.243-0.15 0.464-0.138 0.928-0.276 1.399-0.388 0.102-0.024 0.318 0.043 0.331 0.1 0.031 0.137-0.006 0.303-0.060 0.441-0.029 0.073-0.144 0.134-0.232 0.16-0.403 0.11-0.808 0.207-1.060 0.272z"></path>
<path d="M23.29 21.355c-0.033 0.14-0.087 0.45-0.191 0.742-0.026 0.073-0.229 0.142-0.322 0.116s-0.203-0.178-0.2-0.274c0.010-0.541 0.037-1.083 0.092-1.622 0.012-0.118 0.162-0.221 0.249-0.331 0.104 0.109 0.272 0.205 0.299 0.329 0.059 0.279 0.046 0.573 0.073 1.039z"></path>
<path d="M45.035 4.422c0-1.146 0.28-2.016 0.84-2.608 0.567-0.598 1.293-0.898 2.178-0.898s1.589 0.258 2.111 0.775c0.529 0.516 0.793 1.342 0.793 2.475s-0.28 1.99-0.841 2.57c-0.56 0.579-1.309 0.869-2.245 0.869-0.809 0-1.471-0.23-1.987-0.69-0.267-0.239-0.478-0.57-0.63-0.992-0.146-0.428-0.22-0.929-0.22-1.502zM48.025 1.012c-0.643 0-1.172 0.283-1.586 0.85-0.407 0.567-0.611 1.398-0.611 2.494s0.194 1.896 0.583 2.4c0.388 0.504 0.904 0.756 1.547 0.756 0.65 0 1.178-0.283 1.586-0.85 0.414-0.573 0.621-1.401 0.621-2.485 0-1.090-0.197-1.89-0.592-2.4-0.389-0.51-0.905-0.765-1.548-0.765z"></path>
<path d="M52.61 7.569h-0.793v-6.614h0.793v3.042h3.105v-3.042h0.793v6.614h-0.793v-3.477h-3.105v3.477z"></path>
<path d="M60.584 7.569h-0.124l0.831-6.614h0.315l2.006 6.113 1.997-6.113h0.315l0.831 6.614h-0.793l-0.659-5.291-1.729 5.291h-0.602l-1.748-5.225-0.64 5.225z"></path>
<path d="M72.047 0.955c0.121 0.12 0.181 0.274 0.181 0.463 0 0.157-0.035 0.318-0.105 0.482l-1.71 3.43v2.239h-0.793v-2.031l-1.911-4.582h0.812l1.824 4.261 1.662-3.316c0.070-0.157 0.105-0.321 0.105-0.491s-0.048-0.302-0.143-0.397l0.076-0.057z"></path>
<path d="M1.347 9.306c0.494-0.022 0.976-0.033 1.448-0.033 0.483 0 0.988 0.050 1.515 0.15 0.539 0.1 1.066 0.289 1.582 0.566 0.527 0.266 0.971 0.616 1.33 1.049 0.37 0.422 0.668 0.982 0.892 1.682s0.337 1.548 0.337 2.547c0 0.999-0.168 1.898-0.505 2.697-0.325 0.788-0.774 1.393-1.347 1.815-1.111 0.821-2.452 1.232-4.024 1.232-0.55 0-1.128-0.022-1.734-0.067h-0.842v-11.638h1.347zM1.397 20.811c0.236 0.022 0.533 0.033 0.892 0.033s0.628-0.006 0.808-0.017c0.18-0.011 0.426-0.055 0.741-0.133 0.314-0.089 0.606-0.205 0.875-0.35s0.55-0.355 0.842-0.633c0.303-0.289 0.561-0.627 0.774-1.016 0.483-0.91 0.724-2.098 0.724-3.563 0-1.043-0.129-1.942-0.387-2.697-0.258-0.766-0.556-1.332-0.892-1.698-0.325-0.366-0.724-0.655-1.195-0.866-0.471-0.222-0.847-0.35-1.128-0.383s-0.606-0.050-0.976-0.050-0.73 0.017-1.077 0.050v11.321z"></path>
<path d="M45.308 20.944h-0.219v-11.654h0.572l7.003 10.772v-10.772h0.219v11.654h-1.229l-6.347-9.656v9.656z"></path>
<path d="M63.25 9.29h0.219v6.66c0 1.743-0.348 3.025-1.044 3.846-0.696 0.81-1.605 1.215-2.727 1.215-0.707 0-1.307-0.061-1.801-0.183-0.494-0.133-0.96-0.372-1.398-0.716-0.898-0.688-1.347-2.076-1.347-4.162v-6.66h1.398v6.643c0 2.020 0.309 3.369 0.926 4.046 0.314 0.333 0.64 0.561 0.976 0.683 0.348 0.122 0.763 0.183 1.246 0.183 1.078 0 1.936-0.388 2.576-1.165 0.651-0.788 0.976-2.037 0.976-3.746v-6.643z"></path>
<path d="M69.212 20.944h-1.397v-11.488h-2.912v-0.166h7.239v0.166h-2.929v11.488z"></path>
</symbol>
<symbol id="icon-cook" viewBox="0 0 32 32">
<path fill="#fff" style="fill: var(--color1, #fff); stroke: var(--color2, #f3848c)" stroke="#f3848c" stroke-linejoin="miter" stroke-linecap="butt" stroke-miterlimit="4" stroke-width="1.3333" d="M31.333 16c0 8.468-6.865 15.333-15.333 15.333s-15.333-6.865-15.333-15.333c0-8.468 6.865-15.333 15.333-15.333s15.333 6.865 15.333 15.333z"></path>
<path fill="#fff" style="fill: var(--color1, #fff)" d="M29.333 16c0 7.364-5.97 13.333-13.333 13.333s-13.333-5.97-13.333-13.333c0-7.364 5.97-13.333 13.333-13.333s13.333 5.97 13.333 13.333z"></path>
<path fill="none" stroke="#f3848c" style="stroke: var(--color2, #f3848c)" stroke-linejoin="miter" stroke-linecap="round" stroke-miterlimit="4" stroke-width="0.6667" d="M29 16c0 7.18-5.82 13-13 13s-13-5.82-13-13c0-7.18 5.82-13 13-13s13 5.82 13 13z"></path>
<path fill="#000" style="fill: var(--color3, #000)" d="M9.333 10.953c0 1.413 1.031 2.586 2.381 2.814v4.329c0 0.126 0.050 0.247 0.139 0.337s0.21 0.14 0.337 0.14h7.62c0.126 0 0.247-0.050 0.337-0.14s0.139-0.21 0.139-0.337v-4.329c1.349-0.228 2.38-1.401 2.38-2.814 0-1.576-1.281-2.857-2.857-2.857h-1.078c-0.603-0.862-1.602-1.429-2.732-1.429s-2.129 0.566-2.732 1.429h-1.078c-0.758 0.001-1.484 0.302-2.019 0.838s-0.837 1.262-0.838 2.019zM12.666 17.144h6.668v0.475h-6.668v-0.475zM12.191 9.048h0.616c-0.093 0.309-0.14 0.63-0.14 0.952 0 0.126 0.050 0.247 0.139 0.337s0.21 0.139 0.337 0.139c0.126 0 0.247-0.050 0.337-0.139s0.14-0.21 0.14-0.337c0-1.313 1.068-2.381 2.381-2.381s2.381 1.068 2.381 2.381c0 0.126 0.050 0.247 0.14 0.337s0.21 0.139 0.337 0.139 0.247-0.050 0.337-0.139c0.089-0.089 0.139-0.21 0.139-0.337 0-0.331-0.050-0.65-0.141-0.952h0.616c1.051 0 1.905 0.854 1.905 1.905-0.001 0.504-0.201 0.988-0.557 1.345s-0.84 0.558-1.344 0.56l-0.003-0c-0.063-0-0.125 0.012-0.183 0.036s-0.11 0.059-0.155 0.104c-0.044 0.044-0.080 0.097-0.104 0.155s-0.036 0.12-0.036 0.183l0.001 0.005v2.853h-6.668v-2.855l0-0.002c0-0.063-0.012-0.125-0.036-0.183s-0.059-0.111-0.103-0.155c-0.044-0.044-0.097-0.079-0.155-0.103s-0.12-0.036-0.183-0.036l-0.003 0c-0.504-0.001-0.988-0.202-1.344-0.559s-0.557-0.841-0.557-1.345c0-1.051 0.854-1.905 1.905-1.905zM21.237 20.477h-10.474c-0.126 0-0.247 0.050-0.337 0.139s-0.139 0.21-0.139 0.337c0 0.126 0.050 0.247 0.139 0.337s0.21 0.139 0.337 0.139h10.474c0.126 0 0.247-0.050 0.337-0.139s0.139-0.21 0.139-0.337c0-0.126-0.050-0.247-0.139-0.337s-0.21-0.139-0.337-0.139zM21.237 21.906h-10.474c-0.126 0-0.247 0.050-0.337 0.139s-0.139 0.21-0.139 0.337c0 0.126 0.050 0.247 0.139 0.337s0.21 0.139 0.337 0.139h10.474c0.126 0 0.247-0.050 0.337-0.139s0.139-0.21 0.139-0.337c0-0.126-0.050-0.247-0.139-0.337s-0.21-0.139-0.337-0.139zM18.856 23.347h-5.713c-0.126 0-0.247 0.050-0.337 0.139s-0.139 0.21-0.139 0.337c0 0.126 0.050 0.247 0.139 0.337s0.21 0.139 0.337 0.139h5.713c0.126 0 0.247-0.050 0.337-0.139s0.139-0.21 0.139-0.337c0-0.126-0.050-0.247-0.139-0.337s-0.211-0.139-0.337-0.139z"></path>
</symbol>
<symbol id="icon-fullstars" viewBox="0 0 34 32">
<path d="M15.277 1.031c0.579-1.375 2.551-1.375 3.13 0l3.417 8.116c0.244 0.58 0.796 0.976 1.43 1.026l8.869 0.702c1.503 0.119 2.112 1.972 0.967 2.941l-6.757 5.718c-0.483 0.408-0.694 1.049-0.546 1.66l2.064 8.55c0.35 1.449-1.245 2.594-2.532 1.817l-7.593-4.582c-0.542-0.327-1.224-0.327-1.767 0l-7.593 4.582c-1.287 0.776-2.882-0.369-2.532-1.817l2.064-8.55c0.147-0.611-0.063-1.252-0.546-1.66l-6.757-5.718c-1.145-0.969-0.536-2.822 0.967-2.941l8.869-0.702c0.633-0.050 1.185-0.446 1.429-1.026l3.417-8.116z"></path>
</symbol>
<symbol id="icon-star" viewBox="0 0 34 32">
<path stroke-linejoin="miter" stroke-linecap="butt" stroke-miterlimit="4" stroke-width="1.6842" d="M16.052 1.359c0.272-0.645 1.167-0.686 1.516-0.122l0.062 0.122 3.416 8.115c0.322 0.764 0.996 1.312 1.791 1.487l0.349 0.053 8.869 0.702c0.723 0.057 1.011 0.875 0.584 1.365l-0.094 0.092-6.758 5.719c-0.633 0.536-0.956 1.342-0.878 2.153l0.058 0.349 2.066 8.549c0.167 0.694-0.609 1.303-1.279 0.898h-0.002l-7.59-4.581c-0.709-0.428-1.577-0.482-2.326-0.161l-0.313 0.161-7.592 4.581c-0.629 0.38-1.35-0.132-1.299-0.77l0.020-0.128 2.066-8.549c0.195-0.808-0.026-1.649-0.569-2.256l-0.252-0.245-6.758-5.719c-0.522-0.442-0.312-1.282 0.352-1.436l0.138-0.021 8.868-0.702c0.825-0.065 1.562-0.526 1.98-1.225l0.16-0.314 3.416-8.115z"></path>
</symbol>
</defs>
</svg>
